<svg width="757" height="185" viewBox="0 0 757 185" fill="none" xmlns="http://www.w3.org/2000/svg">
<g filter="url(#filter0_d)">
<path d="M237.677 37.6091L268.061 38.0411C283.805 38.0411 295.325 37.4651 302.621 36.3131C303.677 38.3291 304.205 40.6331 304.205 43.2251C304.205 45.8171 303.053 48.1691 300.749 50.2811C298.445 52.2971 295.661 53.3051 292.397 53.3051L275.837 51.4331C275.837 52.1051 275.597 55.0811 275.117 60.3611C273.773 73.3211 273.101 86.3291 273.101 99.3851C273.101 112.441 274.109 125.497 276.125 138.553C272.957 139.705 269.645 140.281 266.189 140.281C262.733 140.281 259.757 139.321 257.261 137.401C254.765 135.385 253.517 132.409 253.517 128.473C253.517 124.441 253.997 117.385 254.957 107.305C255.917 97.2251 256.397 87.4331 256.397 77.9291C256.397 68.3291 255.917 59.4011 254.957 51.1451C243.341 51.7211 234.269 53.3531 227.741 56.0411C226.589 53.8331 226.013 51.3851 226.013 48.6971C226.013 45.9131 227.117 43.3691 229.325 41.0651C231.533 38.7611 234.317 37.6091 237.677 37.6091ZM312.81 68.7131C315.882 67.8491 318.954 67.4171 322.026 67.4171C325.194 67.4171 327.882 68.3771 330.09 70.2971C332.298 72.2171 333.402 74.7131 333.402 77.7851C333.402 80.7611 332.874 85.9931 331.818 93.4811C330.858 100.873 330.378 106.633 330.378 110.761C330.378 121.513 331.386 130.777 333.402 138.553C330.426 139.705 327.21 140.281 323.754 140.281C320.298 140.281 317.562 139.513 315.546 137.977C313.53 136.345 312.522 134.041 312.522 131.065C312.522 127.993 313.098 123.001 314.25 116.089C315.402 109.177 315.978 103.465 315.978 98.9531C315.978 86.9531 314.922 76.8731 312.81 68.7131ZM314.682 36.1691C318.042 34.6331 321.354 33.8651 324.618 33.8651C327.882 33.8651 330.282 34.7291 331.818 36.4571C333.45 38.0891 334.266 40.5371 334.266 43.8011C334.266 47.0651 333.162 49.9451 330.954 52.4411C328.842 54.9371 326.058 56.1851 322.602 56.1851C315.498 56.1851 311.946 52.4891 311.946 45.0971C311.946 41.8331 312.858 38.8571 314.682 36.1691ZM458.953 82.1051L457.513 112.921C457.513 122.233 458.857 131.065 461.545 139.417C458.857 140.569 455.785 141.145 452.329 141.145C444.169 141.145 440.089 136.585 440.089 127.465C440.089 123.337 440.617 116.425 441.673 106.729C442.729 96.9371 443.257 90.7931 443.257 88.2971C443.257 83.4971 441.289 81.0971 437.353 81.0971C433.033 81.0971 427.849 85.5131 421.801 94.3451C415.849 103.177 412.873 110.089 412.873 115.081C413.353 122.665 414.697 130.201 416.905 137.689C413.257 138.841 410.185 139.417 407.689 139.417C399.529 139.417 395.449 134.857 395.449 125.737C395.449 121.897 395.977 115.465 397.033 106.441C398.089 97.4171 398.617 91.7531 398.617 89.4491C398.617 84.6491 396.457 82.2491 392.137 82.2491C389.161 82.2491 385.753 84.4571 381.913 88.8731C378.073 93.2891 374.809 98.1851 372.121 103.561C369.529 108.841 368.137 113.065 367.945 116.233C368.425 124.489 369.385 131.929 370.825 138.553C367.753 139.705 364.537 140.281 361.177 140.281C357.913 140.281 355.225 139.513 353.113 137.977C351.097 136.345 350.089 134.137 350.089 131.353C350.089 128.473 350.521 123.385 351.385 116.089C352.249 108.697 352.681 101.401 352.681 94.2011C352.681 86.9051 351.577 78.5531 349.369 69.1451C352.441 67.9931 355.705 67.4171 359.161 67.4171C362.617 67.4171 365.401 68.4251 367.513 70.4411C369.721 72.4571 370.825 75.1451 370.825 78.5051C370.825 80.2331 370.489 84.4571 369.817 91.1771C373.369 84.8411 377.881 79.3691 383.353 74.7611C388.825 70.0571 394.297 67.7051 399.769 67.7051C409.465 67.7051 414.313 72.8891 414.313 83.2571C414.313 85.8491 414.169 88.7291 413.881 91.8971C417.433 85.1771 421.993 79.2731 427.561 74.1851C433.225 69.0971 438.841 66.5531 444.409 66.5531C454.105 66.5531 458.953 71.7371 458.953 82.1051ZM489.163 107.593C489.163 114.505 490.267 119.977 492.475 124.009C494.683 127.945 498.379 129.913 503.563 129.913C508.747 129.913 512.779 128.185 515.659 124.729C518.635 121.177 520.123 116.905 520.123 111.913C523.387 111.913 526.219 112.729 528.619 114.361C531.019 115.993 532.219 118.249 532.219 121.129C532.219 127.081 529.051 132.073 522.715 136.105C516.379 140.041 509.707 142.009 502.699 142.009C491.755 142.009 483.835 139.081 478.939 133.225C474.043 127.273 471.595 118.489 471.595 106.873C471.595 95.2571 474.859 85.5131 481.387 77.6411C488.011 69.6731 496.795 65.6891 507.739 65.6891C515.227 65.6891 521.227 67.4171 525.739 70.8731C530.347 74.2331 532.651 79.5131 532.651 86.7131C532.651 93.8171 529.387 99.1931 522.859 102.841C516.427 106.393 508.555 108.169 499.243 108.169C495.979 108.169 492.619 107.977 489.163 107.593ZM489.307 96.2171C492.187 96.7931 495.211 97.0811 498.379 97.0811C505.291 97.0811 511.099 95.7851 515.803 93.1931C516.379 90.8891 516.667 89.0651 516.667 87.7211C516.667 84.3611 515.467 81.8171 513.067 80.0891C510.667 78.3611 507.355 77.4971 503.131 77.4971C499.003 77.4971 495.259 78.8411 491.899 81.5291C490.171 86.5211 489.307 91.4171 489.307 96.2171ZM548.538 120.985C551.61 119.353 554.73 118.537 557.898 118.537C565.002 118.537 568.554 121.849 568.554 128.473C568.554 132.025 567.354 135.049 564.954 137.545C562.554 139.945 559.674 141.145 556.314 141.145C552.954 141.145 550.362 140.185 548.538 138.265C546.81 136.345 545.946 133.753 545.946 130.489C545.946 127.129 546.81 123.961 548.538 120.985ZM660.114 131.065C660.114 133.753 659.01 136.105 656.802 138.121C654.69 140.137 652.05 141.145 648.882 141.145C645.81 141.145 642.834 140.185 639.954 138.265C637.074 136.345 634.578 134.185 632.466 131.785C630.45 129.385 628.242 125.977 625.842 121.561C622.194 114.937 618.546 107.401 614.898 98.9531C602.514 113.833 595.746 127.609 594.594 140.281C582.498 140.281 576.45 136.297 576.45 128.329C576.45 125.641 577.698 122.617 580.194 119.257C582.786 115.801 587.298 110.617 593.73 103.705C600.258 96.7931 605.442 91.0811 609.282 86.5691C598.146 62.0891 587.25 49.8491 576.594 49.8491C576.594 46.2011 577.65 43.3211 579.762 41.2091C581.874 39.0971 584.754 38.0411 588.402 38.0411C594.834 38.0411 600.882 41.3531 606.546 47.9771C612.306 54.6011 617.346 63.1931 621.666 73.7531C631.842 62.5211 637.41 50.3291 638.37 37.1771C650.466 37.1771 656.514 40.8731 656.514 48.2651C656.514 50.9531 655.218 53.9771 652.626 57.3371C650.034 60.6011 645.954 65.0651 640.386 70.7291C634.818 76.3931 630.306 81.2891 626.85 85.4171C629.826 92.4251 631.794 96.8891 632.754 98.8091C633.81 100.729 635.106 103.321 636.642 106.585C638.274 109.753 639.666 112.105 640.818 113.641C641.97 115.081 643.314 116.761 644.85 118.681C646.386 120.601 647.922 121.993 649.458 122.857C650.994 123.625 652.53 124.009 654.066 124.009C655.602 124.009 657.042 123.721 658.386 123.145C659.538 125.737 660.114 128.377 660.114 131.065ZM686.872 126.169C690.808 127.609 695.368 128.329 700.552 128.329C705.736 128.329 710.296 127.321 714.232 125.305C718.936 117.241 721.288 107.593 721.288 96.3611C721.288 85.0331 719.32 79.3691 715.384 79.3691C710.488 79.3691 704.968 84.3131 698.824 94.2011C692.776 104.089 688.792 114.745 686.872 126.169ZM686.872 96.6491C697.048 76.5851 708.328 66.5531 720.712 66.5531C727.24 66.5531 731.896 69.2411 734.68 74.6171C737.56 79.8971 739 86.6171 739 94.7771C739 106.489 735.544 117.145 728.632 126.745C721.72 136.345 713.032 141.145 702.568 141.145C696.616 141.145 691.192 140.185 686.296 138.265C686.488 151.417 687.304 163.465 688.744 174.409C685.672 175.561 682.504 176.137 679.24 176.137C675.976 176.137 673.288 175.033 671.176 172.825C669.064 170.713 668.008 167.449 668.008 163.033C668.008 158.617 668.584 151.081 669.736 140.425C670.888 129.769 671.464 121.417 671.464 115.369C671.464 95.4011 670.408 79.9931 668.296 69.1451C671.368 67.9931 674.584 67.4171 677.944 67.4171C681.4 67.4171 684.04 68.4251 685.864 70.4411C687.784 72.3611 688.744 75.4331 688.744 79.6571C688.744 83.7851 688.12 89.4491 686.872 96.6491Z" fill="#080D12"/>
</g>
<g filter="url(#filter1_d)">
<path d="M237.677 32.7408L268.061 33.1728C283.805 33.1728 295.325 32.5968 302.621 31.4448C303.677 33.4608 304.205 35.7648 304.205 38.3568C304.205 40.9488 303.053 43.3008 300.749 45.4128C298.445 47.4288 295.661 48.4368 292.397 48.4368L275.837 46.5648C275.837 47.2368 275.597 50.2128 275.117 55.4928C273.773 68.4528 273.101 81.4608 273.101 94.5168C273.101 107.573 274.109 120.629 276.125 133.685C272.957 134.837 269.645 135.413 266.189 135.413C262.733 135.413 259.757 134.453 257.261 132.533C254.765 130.517 253.517 127.541 253.517 123.605C253.517 119.573 253.997 112.517 254.957 102.437C255.917 92.3568 256.397 82.5648 256.397 73.0608C256.397 63.4608 255.917 54.5328 254.957 46.2768C243.341 46.8528 234.269 48.4848 227.741 51.1728C226.589 48.9648 226.013 46.5168 226.013 43.8288C226.013 41.0448 227.117 38.5008 229.325 36.1968C231.533 33.8928 234.317 32.7408 237.677 32.7408ZM312.81 63.8448C315.882 62.9808 318.954 62.5488 322.026 62.5488C325.194 62.5488 327.882 63.5088 330.09 65.4288C332.298 67.3488 333.402 69.8448 333.402 72.9168C333.402 75.8928 332.874 81.1248 331.818 88.6128C330.858 96.0048 330.378 101.765 330.378 105.893C330.378 116.645 331.386 125.909 333.402 133.685C330.426 134.837 327.21 135.413 323.754 135.413C320.298 135.413 317.562 134.645 315.546 133.109C313.53 131.477 312.522 129.173 312.522 126.197C312.522 123.125 313.098 118.133 314.25 111.221C315.402 104.309 315.978 98.5968 315.978 94.0848C315.978 82.0848 314.922 72.0048 312.81 63.8448ZM314.682 31.3008C318.042 29.7648 321.354 28.9968 324.618 28.9968C327.882 28.9968 330.282 29.8608 331.818 31.5888C333.45 33.2208 334.266 35.6688 334.266 38.9328C334.266 42.1968 333.162 45.0768 330.954 47.5728C328.842 50.0688 326.058 51.3168 322.602 51.3168C315.498 51.3168 311.946 47.6208 311.946 40.2288C311.946 36.9648 312.858 33.9888 314.682 31.3008ZM458.953 77.2368L457.513 108.053C457.513 117.365 458.857 126.197 461.545 134.549C458.857 135.701 455.785 136.277 452.329 136.277C444.169 136.277 440.089 131.717 440.089 122.597C440.089 118.469 440.617 111.557 441.673 101.861C442.729 92.0688 443.257 85.9248 443.257 83.4288C443.257 78.6288 441.289 76.2288 437.353 76.2288C433.033 76.2288 427.849 80.6448 421.801 89.4768C415.849 98.3088 412.873 105.221 412.873 110.213C413.353 117.797 414.697 125.333 416.905 132.821C413.257 133.973 410.185 134.549 407.689 134.549C399.529 134.549 395.449 129.989 395.449 120.869C395.449 117.029 395.977 110.597 397.033 101.573C398.089 92.5488 398.617 86.8848 398.617 84.5808C398.617 79.7808 396.457 77.3808 392.137 77.3808C389.161 77.3808 385.753 79.5888 381.913 84.0048C378.073 88.4208 374.809 93.3168 372.121 98.6928C369.529 103.973 368.137 108.197 367.945 111.365C368.425 119.621 369.385 127.061 370.825 133.685C367.753 134.837 364.537 135.413 361.177 135.413C357.913 135.413 355.225 134.645 353.113 133.109C351.097 131.477 350.089 129.269 350.089 126.485C350.089 123.605 350.521 118.517 351.385 111.221C352.249 103.829 352.681 96.5328 352.681 89.3328C352.681 82.0368 351.577 73.6848 349.369 64.2768C352.441 63.1248 355.705 62.5488 359.161 62.5488C362.617 62.5488 365.401 63.5568 367.513 65.5728C369.721 67.5888 370.825 70.2768 370.825 73.6368C370.825 75.3648 370.489 79.5888 369.817 86.3088C373.369 79.9728 377.881 74.5008 383.353 69.8928C388.825 65.1888 394.297 62.8368 399.769 62.8368C409.465 62.8368 414.313 68.0208 414.313 78.3888C414.313 80.9808 414.169 83.8608 413.881 87.0288C417.433 80.3088 421.993 74.4048 427.561 69.3168C433.225 64.2288 438.841 61.6848 444.409 61.6848C454.105 61.6848 458.953 66.8688 458.953 77.2368ZM489.163 102.725C489.163 109.637 490.267 115.109 492.475 119.141C494.683 123.077 498.379 125.045 503.563 125.045C508.747 125.045 512.779 123.317 515.659 119.861C518.635 116.309 520.123 112.037 520.123 107.045C523.387 107.045 526.219 107.861 528.619 109.493C531.019 111.125 532.219 113.381 532.219 116.261C532.219 122.213 529.051 127.205 522.715 131.237C516.379 135.173 509.707 137.141 502.699 137.141C491.755 137.141 483.835 134.213 478.939 128.357C474.043 122.405 471.595 113.621 471.595 102.005C471.595 90.3888 474.859 80.6448 481.387 72.7728C488.011 64.8048 496.795 60.8208 507.739 60.8208C515.227 60.8208 521.227 62.5488 525.739 66.0048C530.347 69.3648 532.651 74.6448 532.651 81.8448C532.651 88.9488 529.387 94.3248 522.859 97.9728C516.427 101.525 508.555 103.301 499.243 103.301C495.979 103.301 492.619 103.109 489.163 102.725ZM489.307 91.3488C492.187 91.9248 495.211 92.2128 498.379 92.2128C505.291 92.2128 511.099 90.9168 515.803 88.3248C516.379 86.0208 516.667 84.1968 516.667 82.8528C516.667 79.4928 515.467 76.9488 513.067 75.2208C510.667 73.4928 507.355 72.6288 503.131 72.6288C499.003 72.6288 495.259 73.9728 491.899 76.6608C490.171 81.6528 489.307 86.5488 489.307 91.3488ZM548.538 116.117C551.61 114.485 554.73 113.669 557.898 113.669C565.002 113.669 568.554 116.981 568.554 123.605C568.554 127.157 567.354 130.181 564.954 132.677C562.554 135.077 559.674 136.277 556.314 136.277C552.954 136.277 550.362 135.317 548.538 133.397C546.81 131.477 545.946 128.885 545.946 125.621C545.946 122.261 546.81 119.093 548.538 116.117ZM660.114 126.197C660.114 128.885 659.01 131.237 656.802 133.253C654.69 135.269 652.05 136.277 648.882 136.277C645.81 136.277 642.834 135.317 639.954 133.397C637.074 131.477 634.578 129.317 632.466 126.917C630.45 124.517 628.242 121.109 625.842 116.693C622.194 110.069 618.546 102.533 614.898 94.0848C602.514 108.965 595.746 122.741 594.594 135.413C582.498 135.413 576.45 131.429 576.45 123.461C576.45 120.773 577.698 117.749 580.194 114.389C582.786 110.933 587.298 105.749 593.73 98.8368C600.258 91.9248 605.442 86.2128 609.282 81.7008C598.146 57.2208 587.25 44.9808 576.594 44.9808C576.594 41.3328 577.65 38.4528 579.762 36.3408C581.874 34.2288 584.754 33.1728 588.402 33.1728C594.834 33.1728 600.882 36.4848 606.546 43.1088C612.306 49.7328 617.346 58.3248 621.666 68.8848C631.842 57.6528 637.41 45.4608 638.37 32.3088C650.466 32.3088 656.514 36.0048 656.514 43.3968C656.514 46.0848 655.218 49.1088 652.626 52.4688C650.034 55.7328 645.954 60.1968 640.386 65.8608C634.818 71.5248 630.306 76.4208 626.85 80.5488C629.826 87.5568 631.794 92.0208 632.754 93.9408C633.81 95.8608 635.106 98.4528 636.642 101.717C638.274 104.885 639.666 107.237 640.818 108.773C641.97 110.213 643.314 111.893 644.85 113.813C646.386 115.733 647.922 117.125 649.458 117.989C650.994 118.757 652.53 119.141 654.066 119.141C655.602 119.141 657.042 118.853 658.386 118.277C659.538 120.869 660.114 123.509 660.114 126.197ZM686.872 121.301C690.808 122.741 695.368 123.461 700.552 123.461C705.736 123.461 710.296 122.453 714.232 120.437C718.936 112.373 721.288 102.725 721.288 91.4928C721.288 80.1648 719.32 74.5008 715.384 74.5008C710.488 74.5008 704.968 79.4448 698.824 89.3328C692.776 99.2208 688.792 109.877 686.872 121.301ZM686.872 91.7808C697.048 71.7168 708.328 61.6848 720.712 61.6848C727.24 61.6848 731.896 64.3728 734.68 69.7488C737.56 75.0288 739 81.7488 739 89.9088C739 101.621 735.544 112.277 728.632 121.877C721.72 131.477 713.032 136.277 702.568 136.277C696.616 136.277 691.192 135.317 686.296 133.397C686.488 146.549 687.304 158.597 688.744 169.541C685.672 170.693 682.504 171.269 679.24 171.269C675.976 171.269 673.288 170.165 671.176 167.957C669.064 165.845 668.008 162.581 668.008 158.165C668.008 153.749 668.584 146.213 669.736 135.557C670.888 124.901 671.464 116.549 671.464 110.501C671.464 90.5328 670.408 75.1248 668.296 64.2768C671.368 63.1248 674.584 62.5488 677.944 62.5488C681.4 62.5488 684.04 63.5568 685.864 65.5728C687.784 67.4928 688.744 70.5648 688.744 74.7888C688.744 78.9168 688.12 84.5808 686.872 91.7808Z" fill="#4E7CA6"/>
</g>
<path d="M112.973 108.36C111.994 107.642 111.053 106.942 109.978 106.242C109.489 106.42 108.964 106.496 108.439 106.466C107.915 106.435 107.404 106.299 106.944 106.067C96.5952 99.2425 86.0352 92.4175 75.072 86.45C74.8179 86.3352 74.5949 86.1705 74.4189 85.9678C74.243 85.765 74.1185 85.5293 74.0544 85.2775C68.5056 92.365 62.7072 99.2775 56.8704 106.277C45.2352 120.05 34.0224 134.05 22.8864 148.155C16.0512 156.713 9.08159 166.46 0.691193 174.44C1.99679 174.44 3.30239 174.282 4.62719 174.16C40.9152 155.977 73.2096 131.88 108.941 112.805L114.816 109.725L112.973 108.36Z" fill="#FFECB4"/>
<path d="M96.864 90.02C88.6858 84.3745 79.7493 79.705 70.272 76.125C62.8608 85.19 55.5456 94.3133 48.3264 103.495C41.4912 112.123 34.56 121.888 26.1312 129.868C27.4368 129.868 28.7424 129.71 30.0672 129.588C53.376 117.915 75.0144 103.793 96.9984 90.1425L96.864 90.02ZM120.442 113.12C118.195 110.53 115.93 107.87 113.626 105.298C111.149 102.988 108.614 100.73 106.118 98.4375C99.6672 106.348 93.312 114.328 86.9184 122.325C80.16 130.97 73.1712 140.717 64.8 148.75C66.1056 148.75 67.4112 148.61 68.64 148.47C87.7632 138.897 105.6 127.75 123.59 116.515C122.515 115.5 121.459 114.275 120.442 113.12Z" fill="#FFECB4"/>
<path d="M101.76 87.885C97.4592 84.56 93.1968 81.27 89.088 77.8575C78.3552 90.6325 67.968 103.6 57.6 116.638C50.7648 125.283 43.7952 135.03 35.4048 143.01C36.7104 143.01 38.0352 142.853 39.3408 142.73C65.7024 129.5 89.8944 113.295 114.816 98C110.438 94.71 106.118 91.28 101.76 87.885Z" fill="#F8FAFB"/>
<path d="M122.438 30.1C98.784 43.4525 36.48 60.41 17.1264 84.735C48.6528 76.72 45.0048 89.25 39.1104 98.525C63.3656 72.3811 91.4644 49.4143 122.611 30.275L122.438 30.1ZM97.1904 149.45C106.598 129.29 112.55 115.78 93.3504 104.947C143.405 75.81 150.394 74.725 150.394 74.725C139.987 121.747 126.413 137.095 97.1904 149.45Z" fill="#8080EF"/>
<path d="M39.1104 98.525C37.22 101.439 35.089 104.218 32.736 106.838C32.736 106.838 48.6528 103.25 77.5296 103.25C94.0608 103.25 117.446 117.127 136.07 93.6425C155.866 68.7575 190.867 18.13 192 0C182.063 0.55988 172.361 2.99102 163.507 7.14C116.506 31.0975 73.4208 60.97 39.1104 98.525Z" fill="#B1B1FA"/>
<path d="M173.03 21.35C178.599 15.4018 182.546 8.3381 184.55 0.735001C177.246 1.97614 170.164 4.13154 163.507 7.14C149.427 14.3267 135.725 22.0675 122.4 30.3625C138.854 39.585 160.205 34.4225 173.03 21.35ZM132.48 46.725C131.378 45.1985 129.799 44.0077 127.948 43.306C126.097 42.6042 124.058 42.4237 122.093 42.7875C121.766 42.7875 121.459 42.9625 121.152 43.05C120.845 43.1375 120.134 43.05 119.597 43.1725C117.973 43.481 116.451 44.1325 115.154 45.0748C113.857 46.017 112.82 47.2236 112.128 48.5975C111.441 49.873 111.059 51.267 111.008 52.6871C110.957 54.1072 111.238 55.521 111.831 56.8348C112.425 58.1486 113.318 59.3324 114.452 60.3078C115.585 61.2832 116.933 62.0279 118.406 62.4925C120.944 63.3193 123.709 63.3629 126.276 62.6166C128.844 61.8704 131.071 60.3756 132.614 58.3625C133.854 56.6268 134.502 54.5959 134.478 52.5252C134.454 50.4545 133.759 48.4365 132.48 46.725ZM109.152 66.6575C108.055 65.1257 106.478 63.9307 104.625 63.2284C102.772 62.526 100.73 62.3488 98.7648 62.72C98.4398 62.7914 98.1193 62.879 97.8048 62.9825C95.8696 62.9988 93.9823 63.5334 92.3778 64.5198C90.7734 65.5061 89.5225 66.9007 88.7808 68.53C88.094 69.8042 87.7124 71.197 87.6614 72.6159C87.6104 74.0348 87.891 75.4474 88.4848 76.7599C89.0786 78.0723 89.9719 79.2547 91.1054 80.2284C92.2389 81.2021 93.5866 81.9449 95.0592 82.4075C97.5957 83.2434 100.364 83.2916 102.934 82.5446C105.503 81.7977 107.73 80.2975 109.267 78.2775C110.505 76.5454 111.155 74.5188 111.134 72.4517C111.114 70.3846 110.424 68.3689 109.152 66.6575Z" fill="#C5E9FF"/>
<path d="M138.24 32.7425C134.647 32.851 131.075 32.2105 127.795 30.87C127.569 30.7651 127.398 30.5829 127.319 30.3632C127.239 30.1435 127.259 29.9041 127.373 29.6975C127.492 29.4902 127.695 29.3337 127.939 29.2617C128.183 29.1897 128.449 29.2079 128.678 29.3125C133.114 31.3775 142.118 31.9725 152.198 28.63C158.506 26.4875 164.253 23.1671 169.071 18.8817C173.888 14.5963 177.67 9.44051 180.173 3.745C180.219 3.63489 180.288 3.53432 180.378 3.44934C180.467 3.36436 180.574 3.2967 180.693 3.25043C180.812 3.20416 180.94 3.18022 181.069 3.18005C181.198 3.17989 181.326 3.20349 181.445 3.24945C181.564 3.29541 181.672 3.36278 181.761 3.44753C181.851 3.53228 181.921 3.63266 181.967 3.74266C182.013 3.85266 182.035 3.97001 182.03 4.08769C182.025 4.20537 181.994 4.32095 181.939 4.4275C179.327 10.3385 175.393 15.6891 170.389 20.1391C165.384 24.589 159.418 28.0409 152.87 30.275C148.188 31.8656 143.237 32.7006 138.24 32.7425Z" fill="#F8FAFB"/>
<path d="M145.69 22.155C145.524 22.1576 145.36 22.1202 145.215 22.0464C145.07 21.9726 144.949 21.8652 144.864 21.735C144.735 21.5346 144.698 21.2964 144.758 21.0709C144.819 20.8455 144.974 20.6505 145.19 20.5275L151.834 16.9225C163.008 10.815 170.4 6.7725 174.586 6.7025C174.839 6.70232 175.082 6.79153 175.265 6.95141C175.447 7.11129 175.555 7.32941 175.565 7.56C175.567 7.67491 175.545 7.78916 175.499 7.89621C175.453 8.00326 175.385 8.10101 175.297 8.18389C175.21 8.26677 175.105 8.33316 174.99 8.37924C174.874 8.42533 174.75 8.45022 174.624 8.4525C170.957 8.4525 163.354 12.67 152.813 18.4275L146.17 22.0325C146.026 22.1154 145.859 22.158 145.69 22.155ZM114.816 54.5825H114.605C114.356 54.5244 114.141 54.381 114.005 54.1821C113.869 53.9833 113.823 53.7443 113.875 53.515C114.565 51.3606 115.937 49.4396 117.818 47.9922C119.7 46.5447 122.008 45.6353 124.454 45.3775C126.374 45.3775 130.022 45.99 131.654 51.03C131.726 51.2621 131.693 51.5104 131.563 51.7205C131.434 51.9305 131.218 52.085 130.963 52.15C130.709 52.215 130.436 52.1851 130.206 52.067C129.975 51.9488 129.806 51.7521 129.734 51.52C128.794 48.58 126.97 47.0925 124.435 47.1275C122.418 47.3821 120.522 48.1563 118.972 49.3591C117.421 50.5619 116.279 52.1434 115.68 53.9175C115.629 54.0962 115.519 54.2561 115.364 54.3752C115.209 54.4943 115.018 54.5667 114.816 54.5825ZM91.1424 75.6C90.9105 75.5985 90.6868 75.522 90.511 75.3842C90.3352 75.2464 90.2188 75.0562 90.1824 74.8475C90.0694 73.2922 90.4245 71.7383 91.2095 70.3536C91.9946 68.9688 93.1796 67.8058 94.6368 66.99C96.0833 65.9064 97.819 65.1915 99.6671 64.9179C101.515 64.6443 103.41 64.8219 105.158 65.4325C106.982 66.255 109.21 68.18 109.382 72.73C109.388 72.8464 109.367 72.9625 109.322 73.0716C109.278 73.1806 109.209 73.2805 109.122 73.3652C109.034 73.45 108.929 73.518 108.812 73.5651C108.695 73.6123 108.569 73.6378 108.442 73.64C108.315 73.6447 108.188 73.626 108.07 73.5851C107.951 73.5441 107.843 73.4817 107.751 73.4016C107.66 73.3215 107.587 73.2253 107.538 73.1189C107.488 73.0126 107.462 72.8981 107.462 72.7825C107.347 69.8775 106.253 67.865 104.314 66.99C102.872 66.5391 101.328 66.4326 99.8292 66.6808C98.3299 66.929 96.9256 67.5235 95.7504 68.4075C94.6047 69.0631 93.6692 69.9828 93.0388 71.0738C92.4083 72.1647 92.1051 73.388 92.16 74.62C92.1927 74.8497 92.1242 75.0818 91.9694 75.2655C91.8146 75.4492 91.5863 75.5695 91.3344 75.6H91.1424Z" fill="#F8FAFB"/>
<path d="M108.422 140.28C108.231 140.29 108.041 140.246 107.878 140.155C107.714 140.064 107.585 139.929 107.508 139.77C107.431 139.61 107.409 139.432 107.445 139.261C107.482 139.089 107.575 138.932 107.712 138.81C112.07 134.628 114.048 116.848 111.552 112.56C111.436 112.353 111.413 112.113 111.488 111.89C111.564 111.668 111.731 111.481 111.955 111.37C112.067 111.315 112.19 111.281 112.317 111.27C112.443 111.259 112.571 111.271 112.692 111.305C112.814 111.339 112.927 111.395 113.024 111.469C113.122 111.544 113.202 111.635 113.261 111.737C116.16 116.708 114.086 135.345 109.152 140.07C109.052 140.148 108.936 140.207 108.811 140.243C108.685 140.279 108.553 140.291 108.422 140.28ZM116.582 134.155C116.374 134.159 116.17 134.097 116.006 133.98C115.803 133.841 115.668 133.633 115.632 133.404C115.596 133.174 115.662 132.941 115.814 132.755C121.728 125.562 120.96 112.28 120.96 112.14C120.95 112.025 120.965 111.91 121.004 111.8C121.043 111.69 121.105 111.589 121.187 111.501C121.269 111.413 121.369 111.341 121.482 111.288C121.594 111.236 121.717 111.204 121.843 111.195C121.969 111.186 122.096 111.199 122.216 111.235C122.337 111.27 122.448 111.327 122.545 111.402C122.641 111.477 122.72 111.568 122.778 111.67C122.835 111.773 122.87 111.885 122.88 112C122.88 112.578 123.763 126 117.427 133.77C117.338 133.898 117.212 134.001 117.063 134.069C116.914 134.136 116.748 134.166 116.582 134.155ZM125.933 126.63C125.758 126.625 125.587 126.583 125.434 126.508C125.326 126.447 125.233 126.367 125.16 126.274C125.086 126.18 125.033 126.074 125.005 125.962C124.976 125.85 124.972 125.733 124.993 125.62C125.014 125.506 125.059 125.398 125.126 125.3C129.235 119.14 128.64 107.573 128.64 107.45C128.632 107.336 128.65 107.222 128.691 107.114C128.732 107.006 128.797 106.907 128.881 106.822C128.965 106.737 129.067 106.668 129.18 106.62C129.294 106.572 129.417 106.544 129.542 106.54C129.669 106.533 129.795 106.549 129.914 106.586C130.034 106.624 130.144 106.682 130.239 106.759C130.333 106.835 130.41 106.928 130.465 107.031C130.52 107.135 130.553 107.248 130.56 107.362C130.56 107.853 131.232 119.613 126.72 126.21C126.636 126.333 126.52 126.435 126.383 126.509C126.246 126.582 126.092 126.623 125.933 126.63ZM133.133 118.037C132.972 118.036 132.814 118 132.672 117.933C132.451 117.818 132.288 117.63 132.216 117.408C132.144 117.186 132.17 116.948 132.288 116.743C135.149 111.93 134.765 104.09 134.765 104.02C134.765 103.788 134.866 103.565 135.046 103.401C135.226 103.237 135.47 103.145 135.725 103.145C135.979 103.145 136.224 103.237 136.404 103.401C136.584 103.565 136.685 103.788 136.685 104.02C136.685 104.353 137.088 112.42 133.978 117.67C133.882 117.791 133.754 117.888 133.606 117.952C133.459 118.016 133.296 118.045 133.133 118.037ZM51.0528 81.2175C50.8548 81.22 50.6611 81.1656 50.499 81.0619C50.337 80.9582 50.215 80.8106 50.1504 80.64C48.7488 76.965 41.6448 76.23 31.6224 78.715C31.3678 78.7753 31.0973 78.741 30.8705 78.6196C30.6436 78.4982 30.479 78.2996 30.4128 78.0675C30.3466 77.8354 30.3842 77.5889 30.5175 77.3822C30.6507 77.1754 30.8686 77.0253 31.1232 76.965C42.5472 74.1475 50.1312 75.215 51.9552 80.01C52.0136 80.141 52.0347 80.2833 52.0167 80.4238C51.9987 80.5642 51.9421 80.6982 51.8521 80.8134C51.7621 80.9286 51.6416 81.0212 51.5019 81.0827C51.3622 81.1441 51.2077 81.1725 51.0528 81.165V81.2175ZM38.0928 72.695C37.93 72.6946 37.7701 72.6556 37.6288 72.582C37.4874 72.5084 37.3694 72.4026 37.2864 72.275C37.2193 72.1774 37.1741 72.0687 37.1533 71.9551C37.1324 71.8415 37.1364 71.7253 37.1649 71.6131C37.1935 71.5009 37.246 71.395 37.3196 71.3014C37.3931 71.2077 37.4863 71.1283 37.5936 71.0675C48.9792 64.75 61.44 70.7875 62.016 71.05C62.2222 71.1676 62.3717 71.3521 62.4343 71.5663C62.497 71.7805 62.4681 72.0084 62.3535 72.204C62.2389 72.3995 62.0472 72.5481 61.817 72.6198C61.5869 72.6914 61.3355 72.6808 61.1136 72.59C60.9792 72.59 49.0176 66.78 38.592 72.59C38.4398 72.6673 38.2667 72.7037 38.0928 72.695ZM51.0528 65.1875C50.7982 65.2386 50.5317 65.1953 50.3121 65.0673C50.0925 64.9393 49.9376 64.7371 49.8816 64.505C49.8256 64.2729 49.873 64.0301 50.0134 63.8299C50.1538 63.6297 50.3758 63.4886 50.6304 63.4375C63.0528 57.855 70.1952 63.3325 70.5024 63.56C70.6929 63.7148 70.8096 63.9314 70.8275 64.1635C70.8454 64.3956 70.7632 64.6249 70.5984 64.8025C70.4285 64.9762 70.1909 65.0825 69.9363 65.0988C69.6817 65.1152 69.4301 65.0403 69.2352 64.89C68.9856 64.68 62.7072 59.955 51.4752 65.0125C51.3507 65.0992 51.2063 65.159 51.0528 65.1875ZM66.4128 58.4675C66.2254 58.4681 66.042 58.4187 65.885 58.3254C65.7281 58.2321 65.6045 58.099 65.5296 57.9425C65.4333 57.7264 65.4336 57.4846 65.5305 57.2687C65.6274 57.0528 65.8131 56.8801 66.048 56.7875C71.0229 55.1173 76.3309 54.4313 81.6192 54.775C81.8757 54.7972 82.1123 54.9107 82.2777 55.0909C82.443 55.2711 82.5238 55.5034 82.5024 55.7375C82.4904 55.8526 82.4535 55.9644 82.3938 56.0665C82.3341 56.1685 82.2528 56.2588 82.1546 56.332C82.0564 56.4052 81.9432 56.46 81.8217 56.4931C81.7001 56.5263 81.5726 56.5371 81.4464 56.525C76.4653 56.2056 71.4664 56.8497 66.7776 58.415C66.66 58.4509 66.5367 58.4686 66.4128 58.4675Z" fill="#5F5FF4"/>
<path d="M81.6384 104.545C80.2016 104.547 78.7679 104.424 77.3568 104.178C77.1062 104.131 76.8855 103.997 76.742 103.804C76.5985 103.611 76.5435 103.374 76.5888 103.145C76.614 103.032 76.6633 102.925 76.7338 102.83C76.8044 102.735 76.8949 102.653 77.0001 102.59C77.1052 102.526 77.2231 102.483 77.3469 102.461C77.4707 102.439 77.598 102.439 77.7216 102.463C117.12 109.393 189.312 6.42251 190.08 5.37251C190.145 5.26931 190.232 5.17918 190.336 5.10762C190.44 5.03606 190.559 4.98455 190.685 4.95625C190.812 4.92795 190.943 4.92344 191.072 4.943C191.2 4.96256 191.323 5.00578 191.433 5.07003C191.543 5.13427 191.637 5.2182 191.71 5.31669C191.783 5.41517 191.833 5.52616 191.857 5.64288C191.881 5.7596 191.879 5.87961 191.851 5.9956C191.823 6.11158 191.769 6.22111 191.693 6.31751C188.774 10.5 122.88 104.545 81.6384 104.545Z" fill="#D5D5FF"/>
<defs>
<filter id="filter0_d" x="222.013" y="33.8651" width="520.988" height="150.272" filterUnits="userSpaceOnUse" color-interpolation-filters="sRGB">
<feFlood flood-opacity="0" result="BackgroundImageFix"/>
<feColorMatrix in="SourceAlpha" type="matrix" values="0 0 0 0 0 0 0 0 0 0 0 0 0 0 0 0 0 0 127 0"/>
<feOffset dy="4"/>
<feGaussianBlur stdDeviation="2"/>
<feColorMatrix type="matrix" values="0 0 0 0 0 0 0 0 0 0 0 0 0 0 0 0 0 0 0.25 0"/>
<feBlend mode="normal" in2="BackgroundImageFix" result="effect1_dropShadow"/>
<feBlend mode="normal" in="SourceGraphic" in2="effect1_dropShadow" result="shape"/>
</filter>
<filter id="filter1_d" x="222.013" y="28.9968" width="520.988" height="150.272" filterUnits="userSpaceOnUse" color-interpolation-filters="sRGB">
<feFlood flood-opacity="0" result="BackgroundImageFix"/>
<feColorMatrix in="SourceAlpha" type="matrix" values="0 0 0 0 0 0 0 0 0 0 0 0 0 0 0 0 0 0 127 0"/>
<feOffset dy="4"/>
<feGaussianBlur stdDeviation="2"/>
<feColorMatrix type="matrix" values="0 0 0 0 0 0 0 0 0 0 0 0 0 0 0 0 0 0 0.25 0"/>
<feBlend mode="normal" in2="BackgroundImageFix" result="effect1_dropShadow"/>
<feBlend mode="normal" in="SourceGraphic" in2="effect1_dropShadow" result="shape"/>
</filter>
</defs>
</svg>
