<svg width="1063" height="318" viewBox="0 0 1063 318" fill="none" xmlns="http://www.w3.org/2000/svg">
<path fill-rule="evenodd" clip-rule="evenodd" d="M899.095 46.9239C897.935 68.1942 934.765 78.2269 934.765 78.2269C934.765 78.2269 973.318 66.6712 974.436 45.9455C975.582 25.1832 933.216 13 933.216 13C933.216 13 900.227 25.6501 899.095 46.9239ZM829.645 97.5015C844.871 117.265 889.683 123.821 889.683 123.821C889.683 123.821 918.267 109.864 902.68 89.5775C887.029 69.297 846.837 61.0646 846.837 61.0646C846.837 61.0646 814.446 77.7413 829.645 97.5015ZM981.355 87.6453C951.742 105.111 968.872 121.92 968.872 121.92C968.872 121.92 1016.45 121.094 1045.24 104.049C1074.12 87.013 1055.36 67.1751 1055.36 67.1751C1055.36 67.1751 1010.94 70.1643 981.355 87.6453ZM870.462 145.618C879.492 166.57 846.747 178.894 846.747 178.894C846.747 178.894 804.367 169.977 795.545 149.572C786.834 129.151 824.178 114.352 824.178 114.352C824.178 114.352 861.418 124.678 870.462 145.618ZM796.024 182.211C791.801 160.977 757.117 149.259 757.117 149.259C757.117 149.259 716.543 162.552 720.656 183.225C724.768 203.899 764.828 214.417 764.828 214.417C764.828 214.417 800.22 203.429 796.024 182.211ZM657.563 247.482C657.563 247.482 626.53 232.649 637.047 212.341C647.592 192.036 695.753 184.111 695.753 184.111C695.753 184.111 720.704 199.466 709.937 220.308C699.136 241.147 657.563 247.482 657.563 247.482ZM941.135 164.375C941.135 164.375 936.87 146.22 977.576 133.111C1018.38 119.999 1062.91 122.524 1062.91 122.524C1062.91 122.524 1066.66 143.798 1026.9 156.58C987.12 169.374 941.135 164.375 941.135 164.375ZM931.507 177.041C884.716 186.124 879.096 204.225 879.096 204.225C879.096 204.225 921.254 213.287 966.857 204.467C1012.46 195.647 1020.3 174.535 1020.3 174.535C1020.3 174.535 978.312 167.987 931.507 177.041ZM804.36 234.603C804.36 234.603 822.99 218.022 874.206 215.217C925.485 212.406 960.613 223.885 960.613 223.885C960.613 223.885 937.641 243.034 887.738 245.774C837.793 248.523 804.36 234.603 804.36 234.603ZM855.513 259.973C855.513 259.973 823.872 246.85 772.233 247.099C720.621 247.364 697.406 262.905 697.406 262.905C697.406 262.905 726.532 278.378 776.859 278.142C827.228 277.845 855.513 259.973 855.513 259.973ZM922.004 89.5815L946.247 87.6037C946.741 88.6906 993.684 196.968 613.942 271.852L603.406 262.708C964.871 191.398 923.949 93.69 922.004 89.5815ZM81.6495 88.5006C111.258 105.967 94.1315 122.775 94.1315 122.775C94.1315 122.775 46.5563 121.949 17.7614 104.904C-11.1223 87.8683 7.63807 68.0304 7.63807 68.0304C7.63807 68.0304 52.0628 71.0196 81.6495 88.5006ZM173.325 124.677C173.325 124.677 218.135 118.12 233.363 98.3568C248.561 78.5966 216.172 61.9199 216.172 61.9199C216.172 61.9199 175.975 70.1523 160.325 90.4328C144.742 110.719 173.325 124.677 173.325 124.677ZM216.259 179.749C216.259 179.749 183.513 167.425 192.544 146.473C201.583 125.533 238.826 115.207 238.826 115.207C238.826 115.207 276.169 130.006 267.456 150.427C258.639 170.833 216.259 179.749 216.259 179.749ZM305.888 150.114C305.888 150.114 271.203 161.832 266.984 183.066C262.786 204.285 298.176 215.272 298.176 215.272C298.176 215.272 338.242 204.754 342.352 184.081C346.462 163.408 305.888 150.114 305.888 150.114ZM425.957 213.196C436.472 233.504 405.44 248.338 405.44 248.338C405.44 248.338 363.868 242.003 353.068 221.164C342.298 200.321 367.253 184.966 367.253 184.966C367.253 184.966 415.411 192.891 425.957 213.196ZM128.238 79.0822C128.238 79.0822 165.072 69.0495 163.91 47.7792C162.779 26.5054 129.789 13.8553 129.789 13.8553C129.789 13.8553 87.4206 26.0385 88.5661 46.8008C89.6886 67.5265 128.238 79.0822 128.238 79.0822ZM85.427 133.966C126.134 147.076 121.866 165.23 121.866 165.23C121.866 165.23 75.8805 170.229 36.1088 157.435C-3.65497 144.654 0.0943833 123.38 0.0943833 123.38C0.0943833 123.38 44.6231 120.854 85.427 133.966ZM183.908 205.08C183.908 205.08 178.289 186.979 131.498 177.897C84.6942 168.843 42.6996 175.39 42.6996 175.39C42.6996 175.39 50.5397 196.502 96.1446 205.322C141.75 214.142 183.908 205.08 183.908 205.08ZM188.8 216.073C240.014 218.878 258.648 235.458 258.648 235.458C258.648 235.458 225.212 249.379 175.271 246.63C125.367 243.889 102.392 224.741 102.392 224.741C102.392 224.741 137.519 213.261 188.8 216.073ZM290.767 247.955C239.132 247.705 207.488 260.828 207.488 260.828C207.488 260.828 235.778 278.7 286.145 278.997C336.472 279.233 365.597 263.76 365.597 263.76C365.597 263.76 342.381 248.219 290.767 247.955ZM116.757 88.459L140.997 90.4368C139.055 94.5453 98.1341 192.253 459.598 263.563L449.062 272.707C69.3192 197.824 116.264 89.5459 116.757 88.459Z" fill="url(#paint0_linear)"/>
<g filter="url(#filter0_d)">
<path d="M49.329 32.656L110.097 33.52C141.585 33.52 164.625 32.368 179.217 30.064C181.329 34.096 182.385 38.704 182.385 43.888C182.385 49.072 180.081 53.776 175.473 58C170.865 62.032 165.297 64.048 158.769 64.048L125.649 60.304C125.649 61.648 125.169 67.6 124.209 78.16C121.521 104.08 120.177 130.096 120.177 156.208C120.177 182.32 122.193 208.432 126.225 234.544C119.889 236.848 113.265 238 106.353 238C99.441 238 93.489 236.08 88.497 232.24C83.505 228.208 81.009 222.256 81.009 214.384C81.009 206.32 81.969 192.208 83.889 172.048C85.809 151.888 86.769 132.304 86.769 113.296C86.769 94.096 85.809 76.24 83.889 59.728C60.657 60.88 42.513 64.144 29.457 69.52C27.153 65.104 26.001 60.208 26.001 54.832C26.001 49.264 28.209 44.176 32.625 39.568C37.041 34.96 42.609 32.656 49.329 32.656ZM199.595 94.864C205.739 93.136 211.883 92.272 218.027 92.272C224.363 92.272 229.739 94.192 234.155 98.032C238.571 101.872 240.779 106.864 240.779 113.008C240.779 118.96 239.723 129.424 237.611 144.4C235.691 159.184 234.731 170.704 234.731 178.96C234.731 200.464 236.747 218.992 240.779 234.544C234.827 236.848 228.395 238 221.483 238C214.571 238 209.099 236.464 205.067 233.392C201.035 230.128 199.019 225.52 199.019 219.568C199.019 213.424 200.171 203.44 202.475 189.616C204.779 175.792 205.931 164.368 205.931 155.344C205.931 131.344 203.819 111.184 199.595 94.864ZM203.339 29.776C210.059 26.704 216.683 25.168 223.211 25.168C229.739 25.168 234.539 26.896 237.611 30.352C240.875 33.616 242.507 38.512 242.507 45.04C242.507 51.568 240.299 57.328 235.883 62.32C231.659 67.312 226.091 69.808 219.179 69.808C204.971 69.808 197.867 62.416 197.867 47.632C197.867 41.104 199.691 35.152 203.339 29.776ZM491.882 121.648L489.002 183.28C489.002 201.904 491.69 219.568 497.066 236.272C491.69 238.576 485.546 239.728 478.634 239.728C462.314 239.728 454.154 230.608 454.154 212.368C454.154 204.112 455.21 190.288 457.322 170.896C459.434 151.312 460.49 139.024 460.49 134.032C460.49 124.432 456.554 119.632 448.682 119.632C440.042 119.632 429.674 128.464 417.578 146.128C405.674 163.792 399.722 177.616 399.722 187.6C400.682 202.768 403.37 217.84 407.786 232.816C400.49 235.12 394.346 236.272 389.354 236.272C373.034 236.272 364.874 227.152 364.874 208.912C364.874 201.232 365.93 188.368 368.042 170.32C370.154 152.272 371.21 140.944 371.21 136.336C371.21 126.736 366.89 121.936 358.25 121.936C352.298 121.936 345.482 126.352 337.802 135.184C330.122 144.016 323.594 153.808 318.218 164.56C313.034 175.12 310.25 183.568 309.866 189.904C310.826 206.416 312.746 221.296 315.626 234.544C309.482 236.848 303.05 238 296.33 238C289.802 238 284.426 236.464 280.202 233.392C276.17 230.128 274.154 225.712 274.154 220.144C274.154 214.384 275.018 204.208 276.746 189.616C278.474 174.832 279.338 160.24 279.338 145.84C279.338 131.248 277.13 114.544 272.714 95.728C278.858 93.424 285.386 92.272 292.298 92.272C299.21 92.272 304.778 94.288 309.002 98.32C313.418 102.352 315.626 107.728 315.626 114.448C315.626 117.904 314.954 126.352 313.61 139.792C320.714 127.12 329.738 116.176 340.682 106.96C351.626 97.552 362.57 92.848 373.514 92.848C392.906 92.848 402.602 103.216 402.602 123.952C402.602 129.136 402.314 134.896 401.738 141.232C408.842 127.792 417.962 115.984 429.098 105.808C440.426 95.632 451.658 90.544 462.794 90.544C482.186 90.544 491.882 100.912 491.882 121.648ZM552.301 172.624C552.301 186.448 554.509 197.392 558.925 205.456C563.341 213.328 570.733 217.264 581.101 217.264C591.469 217.264 599.533 213.808 605.293 206.896C611.245 199.792 614.221 191.248 614.221 181.264C620.749 181.264 626.413 182.896 631.213 186.16C636.013 189.424 638.413 193.936 638.413 199.696C638.413 211.6 632.077 221.584 619.405 229.648C606.733 237.52 593.389 241.456 579.373 241.456C557.485 241.456 541.645 235.6 531.853 223.888C522.061 211.984 517.165 194.416 517.165 171.184C517.165 147.952 523.693 128.464 536.749 112.72C549.997 96.784 567.565 88.816 589.453 88.816C604.429 88.816 616.429 92.272 625.453 99.184C634.669 105.904 639.277 116.464 639.277 130.864C639.277 145.072 632.749 155.824 619.693 163.12C606.829 170.224 591.085 173.776 572.461 173.776C565.933 173.776 559.213 173.392 552.301 172.624ZM552.589 149.872C558.349 151.024 564.397 151.6 570.733 151.6C584.557 151.6 596.173 149.008 605.581 143.824C606.733 139.216 607.309 135.568 607.309 132.88C607.309 126.16 604.909 121.072 600.109 117.616C595.309 114.16 588.685 112.432 580.237 112.432C571.981 112.432 564.493 115.12 557.773 120.496C554.317 130.48 552.589 140.272 552.589 149.872ZM671.051 199.408C677.195 196.144 683.435 194.512 689.771 194.512C703.979 194.512 711.083 201.136 711.083 214.384C711.083 221.488 708.683 227.536 703.883 232.528C699.083 237.328 693.323 239.728 686.603 239.728C679.883 239.728 674.699 237.808 671.051 233.968C667.595 230.128 665.867 224.944 665.867 218.416C665.867 211.696 667.595 205.36 671.051 199.408ZM872.316 218.416C872.316 225.136 870.492 230.416 866.844 234.256C863.388 237.904 858.684 239.728 852.732 239.728C846.78 239.728 841.404 238.576 836.604 236.272C831.996 233.776 827.388 229.744 822.78 224.176C818.172 218.608 814.524 213.904 811.836 210.064C807.996 204.112 800.988 192.304 790.812 174.64C771.612 192.88 762.012 214 762.012 238C752.412 238 744.348 236.176 737.82 232.528C731.484 228.88 728.316 223.504 728.316 216.4C728.316 209.296 730.62 202.768 735.228 196.816C740.028 190.672 747.612 183.184 757.98 174.352C768.54 165.52 775.548 159.376 779.004 155.92C771.708 144.784 764.412 136.048 757.116 129.712C750.012 123.184 740.892 117.808 729.756 113.584C729.756 107.248 731.772 102.16 735.804 98.32C740.028 94.288 744.924 92.272 750.492 92.272C756.06 92.272 761.052 93.328 765.468 95.44C770.076 97.36 774.012 99.664 777.276 102.352C780.732 104.848 784.476 108.592 788.508 113.584C793.308 119.152 799.548 127.792 807.228 139.504C811.836 134.128 815.292 129.808 817.596 126.544C823.356 117.904 826.236 106.48 826.236 92.272C833.34 92.272 839.196 92.56 843.804 93.136C848.604 93.712 853.02 95.536 857.052 98.608C861.276 101.488 863.388 105.616 863.388 110.992C863.388 116.368 860.7 122.032 855.324 127.984C849.948 133.936 843.132 140.08 834.876 146.416C826.62 152.56 821.34 156.88 819.036 159.376C827.292 176.08 835.548 189.328 843.804 199.12C852.06 208.72 861.564 215.152 872.316 218.416ZM925.783 209.776C933.655 212.656 942.775 214.096 953.143 214.096C963.511 214.096 972.631 212.08 980.503 208.048C989.911 191.92 994.615 172.624 994.615 150.16C994.615 127.504 990.679 116.176 982.807 116.176C973.015 116.176 961.975 126.064 949.687 145.84C937.591 165.616 929.623 186.928 925.783 209.776ZM925.783 150.736C946.135 110.608 968.695 90.544 993.463 90.544C1006.52 90.544 1015.83 95.92 1021.4 106.672C1027.16 117.232 1030.04 130.672 1030.04 146.992C1030.04 170.416 1023.13 191.728 1009.3 210.928C995.479 230.128 978.103 239.728 957.175 239.728C945.271 239.728 934.423 237.808 924.631 233.968C925.015 260.272 926.647 284.368 929.527 306.256C923.383 308.56 917.047 309.712 910.519 309.712C903.991 309.712 898.615 307.504 894.391 303.088C890.167 298.864 888.055 292.336 888.055 283.504C888.055 274.672 889.207 259.6 891.511 238.288C893.815 216.976 894.967 200.272 894.967 188.176C894.967 148.24 892.855 117.424 888.631 95.728C894.775 93.424 901.207 92.272 907.927 92.272C914.839 92.272 920.119 94.288 923.767 98.32C927.607 102.16 929.527 108.304 929.527 116.752C929.527 125.008 928.279 136.336 925.783 150.736Z" fill="#080D12"/>
</g>
<g filter="url(#filter1_d)">
<path d="M49.329 23.656L110.097 24.52C141.585 24.52 164.625 23.368 179.217 21.064C181.329 25.096 182.385 29.704 182.385 34.888C182.385 40.072 180.081 44.776 175.473 49C170.865 53.032 165.297 55.048 158.769 55.048L125.649 51.304C125.649 52.648 125.169 58.6 124.209 69.16C121.521 95.08 120.177 121.096 120.177 147.208C120.177 173.32 122.193 199.432 126.225 225.544C119.889 227.848 113.265 229 106.353 229C99.441 229 93.489 227.08 88.497 223.24C83.505 219.208 81.009 213.256 81.009 205.384C81.009 197.32 81.969 183.208 83.889 163.048C85.809 142.888 86.769 123.304 86.769 104.296C86.769 85.096 85.809 67.24 83.889 50.728C60.657 51.88 42.513 55.144 29.457 60.52C27.153 56.104 26.001 51.208 26.001 45.832C26.001 40.264 28.209 35.176 32.625 30.568C37.041 25.96 42.609 23.656 49.329 23.656ZM199.595 85.864C205.739 84.136 211.883 83.272 218.027 83.272C224.363 83.272 229.739 85.192 234.155 89.032C238.571 92.872 240.779 97.864 240.779 104.008C240.779 109.96 239.723 120.424 237.611 135.4C235.691 150.184 234.731 161.704 234.731 169.96C234.731 191.464 236.747 209.992 240.779 225.544C234.827 227.848 228.395 229 221.483 229C214.571 229 209.099 227.464 205.067 224.392C201.035 221.128 199.019 216.52 199.019 210.568C199.019 204.424 200.171 194.44 202.475 180.616C204.779 166.792 205.931 155.368 205.931 146.344C205.931 122.344 203.819 102.184 199.595 85.864ZM203.339 20.776C210.059 17.704 216.683 16.168 223.211 16.168C229.739 16.168 234.539 17.896 237.611 21.352C240.875 24.616 242.507 29.512 242.507 36.04C242.507 42.568 240.299 48.328 235.883 53.32C231.659 58.312 226.091 60.808 219.179 60.808C204.971 60.808 197.867 53.416 197.867 38.632C197.867 32.104 199.691 26.152 203.339 20.776ZM491.882 112.648L489.002 174.28C489.002 192.904 491.69 210.568 497.066 227.272C491.69 229.576 485.546 230.728 478.634 230.728C462.314 230.728 454.154 221.608 454.154 203.368C454.154 195.112 455.21 181.288 457.322 161.896C459.434 142.312 460.49 130.024 460.49 125.032C460.49 115.432 456.554 110.632 448.682 110.632C440.042 110.632 429.674 119.464 417.578 137.128C405.674 154.792 399.722 168.616 399.722 178.6C400.682 193.768 403.37 208.84 407.786 223.816C400.49 226.12 394.346 227.272 389.354 227.272C373.034 227.272 364.874 218.152 364.874 199.912C364.874 192.232 365.93 179.368 368.042 161.32C370.154 143.272 371.21 131.944 371.21 127.336C371.21 117.736 366.89 112.936 358.25 112.936C352.298 112.936 345.482 117.352 337.802 126.184C330.122 135.016 323.594 144.808 318.218 155.56C313.034 166.12 310.25 174.568 309.866 180.904C310.826 197.416 312.746 212.296 315.626 225.544C309.482 227.848 303.05 229 296.33 229C289.802 229 284.426 227.464 280.202 224.392C276.17 221.128 274.154 216.712 274.154 211.144C274.154 205.384 275.018 195.208 276.746 180.616C278.474 165.832 279.338 151.24 279.338 136.84C279.338 122.248 277.13 105.544 272.714 86.728C278.858 84.424 285.386 83.272 292.298 83.272C299.21 83.272 304.778 85.288 309.002 89.32C313.418 93.352 315.626 98.728 315.626 105.448C315.626 108.904 314.954 117.352 313.61 130.792C320.714 118.12 329.738 107.176 340.682 97.96C351.626 88.552 362.57 83.848 373.514 83.848C392.906 83.848 402.602 94.216 402.602 114.952C402.602 120.136 402.314 125.896 401.738 132.232C408.842 118.792 417.962 106.984 429.098 96.808C440.426 86.632 451.658 81.544 462.794 81.544C482.186 81.544 491.882 91.912 491.882 112.648ZM552.301 163.624C552.301 177.448 554.509 188.392 558.925 196.456C563.341 204.328 570.733 208.264 581.101 208.264C591.469 208.264 599.533 204.808 605.293 197.896C611.245 190.792 614.221 182.248 614.221 172.264C620.749 172.264 626.413 173.896 631.213 177.16C636.013 180.424 638.413 184.936 638.413 190.696C638.413 202.6 632.077 212.584 619.405 220.648C606.733 228.52 593.389 232.456 579.373 232.456C557.485 232.456 541.645 226.6 531.853 214.888C522.061 202.984 517.165 185.416 517.165 162.184C517.165 138.952 523.693 119.464 536.749 103.72C549.997 87.784 567.565 79.816 589.453 79.816C604.429 79.816 616.429 83.272 625.453 90.184C634.669 96.904 639.277 107.464 639.277 121.864C639.277 136.072 632.749 146.824 619.693 154.12C606.829 161.224 591.085 164.776 572.461 164.776C565.933 164.776 559.213 164.392 552.301 163.624ZM552.589 140.872C558.349 142.024 564.397 142.6 570.733 142.6C584.557 142.6 596.173 140.008 605.581 134.824C606.733 130.216 607.309 126.568 607.309 123.88C607.309 117.16 604.909 112.072 600.109 108.616C595.309 105.16 588.685 103.432 580.237 103.432C571.981 103.432 564.493 106.12 557.773 111.496C554.317 121.48 552.589 131.272 552.589 140.872ZM671.051 190.408C677.195 187.144 683.435 185.512 689.771 185.512C703.979 185.512 711.083 192.136 711.083 205.384C711.083 212.488 708.683 218.536 703.883 223.528C699.083 228.328 693.323 230.728 686.603 230.728C679.883 230.728 674.699 228.808 671.051 224.968C667.595 221.128 665.867 215.944 665.867 209.416C665.867 202.696 667.595 196.36 671.051 190.408ZM872.316 209.416C872.316 216.136 870.492 221.416 866.844 225.256C863.388 228.904 858.684 230.728 852.732 230.728C846.78 230.728 841.404 229.576 836.604 227.272C831.996 224.776 827.388 220.744 822.78 215.176C818.172 209.608 814.524 204.904 811.836 201.064C807.996 195.112 800.988 183.304 790.812 165.64C771.612 183.88 762.012 205 762.012 229C752.412 229 744.348 227.176 737.82 223.528C731.484 219.88 728.316 214.504 728.316 207.4C728.316 200.296 730.62 193.768 735.228 187.816C740.028 181.672 747.612 174.184 757.98 165.352C768.54 156.52 775.548 150.376 779.004 146.92C771.708 135.784 764.412 127.048 757.116 120.712C750.012 114.184 740.892 108.808 729.756 104.584C729.756 98.248 731.772 93.16 735.804 89.32C740.028 85.288 744.924 83.272 750.492 83.272C756.06 83.272 761.052 84.328 765.468 86.44C770.076 88.36 774.012 90.664 777.276 93.352C780.732 95.848 784.476 99.592 788.508 104.584C793.308 110.152 799.548 118.792 807.228 130.504C811.836 125.128 815.292 120.808 817.596 117.544C823.356 108.904 826.236 97.48 826.236 83.272C833.34 83.272 839.196 83.56 843.804 84.136C848.604 84.712 853.02 86.536 857.052 89.608C861.276 92.488 863.388 96.616 863.388 101.992C863.388 107.368 860.7 113.032 855.324 118.984C849.948 124.936 843.132 131.08 834.876 137.416C826.62 143.56 821.34 147.88 819.036 150.376C827.292 167.08 835.548 180.328 843.804 190.12C852.06 199.72 861.564 206.152 872.316 209.416ZM925.783 200.776C933.655 203.656 942.775 205.096 953.143 205.096C963.511 205.096 972.631 203.08 980.503 199.048C989.911 182.92 994.615 163.624 994.615 141.16C994.615 118.504 990.679 107.176 982.807 107.176C973.015 107.176 961.975 117.064 949.687 136.84C937.591 156.616 929.623 177.928 925.783 200.776ZM925.783 141.736C946.135 101.608 968.695 81.544 993.463 81.544C1006.52 81.544 1015.83 86.92 1021.4 97.672C1027.16 108.232 1030.04 121.672 1030.04 137.992C1030.04 161.416 1023.13 182.728 1009.3 201.928C995.479 221.128 978.103 230.728 957.175 230.728C945.271 230.728 934.423 228.808 924.631 224.968C925.015 251.272 926.647 275.368 929.527 297.256C923.383 299.56 917.047 300.712 910.519 300.712C903.991 300.712 898.615 298.504 894.391 294.088C890.167 289.864 888.055 283.336 888.055 274.504C888.055 265.672 889.207 250.6 891.511 229.288C893.815 207.976 894.967 191.272 894.967 179.176C894.967 139.24 892.855 108.424 888.631 86.728C894.775 84.424 901.207 83.272 907.927 83.272C914.839 83.272 920.119 85.288 923.767 89.32C927.607 93.16 929.527 99.304 929.527 107.752C929.527 116.008 928.279 127.336 925.783 141.736Z" fill="#4E7CA6"/>
</g>
<defs>
<filter id="filter0_d" x="22.001" y="25.168" width="1012.04" height="292.544" filterUnits="userSpaceOnUse" color-interpolation-filters="sRGB">
<feFlood flood-opacity="0" result="BackgroundImageFix"/>
<feColorMatrix in="SourceAlpha" type="matrix" values="0 0 0 0 0 0 0 0 0 0 0 0 0 0 0 0 0 0 127 0"/>
<feOffset dy="4"/>
<feGaussianBlur stdDeviation="2"/>
<feColorMatrix type="matrix" values="0 0 0 0 0 0 0 0 0 0 0 0 0 0 0 0 0 0 0.25 0"/>
<feBlend mode="normal" in2="BackgroundImageFix" result="effect1_dropShadow"/>
<feBlend mode="normal" in="SourceGraphic" in2="effect1_dropShadow" result="shape"/>
</filter>
<filter id="filter1_d" x="22.001" y="16.168" width="1012.04" height="292.544" filterUnits="userSpaceOnUse" color-interpolation-filters="sRGB">
<feFlood flood-opacity="0" result="BackgroundImageFix"/>
<feColorMatrix in="SourceAlpha" type="matrix" values="0 0 0 0 0 0 0 0 0 0 0 0 0 0 0 0 0 0 127 0"/>
<feOffset dy="4"/>
<feGaussianBlur stdDeviation="2"/>
<feColorMatrix type="matrix" values="0 0 0 0 0 0 0 0 0 0 0 0 0 0 0 0 0 0 0.25 0"/>
<feBlend mode="normal" in2="BackgroundImageFix" result="effect1_dropShadow"/>
<feBlend mode="normal" in="SourceGraphic" in2="effect1_dropShadow" result="shape"/>
</filter>
<linearGradient id="paint0_linear" x1="531.501" y1="13" x2="531.501" y2="279" gradientUnits="userSpaceOnUse">
<stop stop-color="#8BC2B5"/>
<stop offset="1" stop-color="#DCDDE0" stop-opacity="0"/>
</linearGradient>
</defs>
</svg>
